<?xml version="1.0" encoding="UTF-8" standalone="no"?>
<!DOCTYPE svg PUBLIC "-//W3C//DTD SVG 1.1//EN" "http://www.w3.org/Graphics/SVG/1.1/DTD/svg11.dtd">
<svg width="100%" height="100%" viewBox="0 0 19 21" version="1.1" xmlns="http://www.w3.org/2000/svg" xmlns:xlink="http://www.w3.org/1999/xlink" xml:space="preserve" xmlns:serif="http://www.serif.com/" style="fill-rule:evenodd;clip-rule:evenodd;stroke-linejoin:round;stroke-miterlimit:2;">
    <g transform="matrix(1,0,0,1,-1371.52,-1270.51)">
        <g transform="matrix(1,0,0,1,-0.28,-0.85143)">
            <g transform="matrix(0.132121,0,0,0.132121,1132.58,1138.65)">
                <g transform="matrix(2.41928,0,0,2.41928,-2727.31,-1524.56)">
                    <path d="M1884,1066.84L1924,1066.84L1924,1073.84L1909.79,1073.66L1909.79,1098.24C1915.53,1096.98 1920.05,1093.59 1923.51,1088.85C1925.73,1085.85 1929.93,1085.17 1932.98,1087.3C1933.02,1087.27 1933.03,1087.27 1933.03,1087.27C1927.55,1097.34 1918.5,1104.21 1906,1108L1903,1108C1891.29,1106.12 1882.17,1099.06 1875.75,1086.59C1875.75,1086.58 1875.8,1086.53 1875.89,1086.43C1876.48,1084.97 1877.82,1083.96 1879.38,1083.8C1880.95,1083.63 1882.47,1084.35 1883.34,1085.65C1887.72,1092.37 1892.95,1097 1899.21,1097.65L1899.21,1073.84L1885,1073.84L1884,1066.84Z" style="fill:white;"/>
                </g>
                <g transform="matrix(1,0,0,1,0,20.3421)">
                    <rect x="1867" y="1027" width="26" height="18" style="fill:white;"/>
                </g>
                <g transform="matrix(1,0,0,1,-2.44476,18.4369)">
                    <path d="M1882.44,986C1895.94,986 1906.89,996.953 1906.89,1010.45C1906.89,1023.94 1895.94,1034.89 1882.44,1034.89C1868.95,1034.89 1858,1023.94 1858,1010.45C1858,996.953 1868.95,986 1882.44,986ZM1882.44,998.222C1889.19,998.222 1894.67,1003.7 1894.67,1010.45C1894.67,1017.19 1889.19,1022.67 1882.44,1022.67C1875.7,1022.67 1870.22,1017.19 1870.22,1010.45C1870.22,1003.7 1875.7,998.222 1882.44,998.222Z" style="fill:white;"/>
                </g>
            </g>
        </g>
    </g>
</svg>
